<?xml version="1.0" encoding="UTF-8"?>
<svg version="1.1" xmlns="http://www.w3.org/2000/svg" width="500" height="500">
<path d="M0 0 C1.02575368 -0.00453111 2.05150737 -0.00906223 3.1083445 -0.01373065 C6.51473575 -0.02629999 9.92096558 -0.0247591 13.32737732 -0.02310181 C15.78252363 -0.0290918 18.23766807 -0.03589843 20.69281006 -0.04345703 C26.65239823 -0.05925096 32.61192396 -0.06556345 38.57152725 -0.06668179 C43.42237453 -0.06763577 48.27320887 -0.07176345 53.12405205 -0.07808304 C66.91294421 -0.0956781 80.70180537 -0.10492487 94.49070884 -0.10342209 C95.60337048 -0.10330222 95.60337048 -0.10330222 96.73851013 -0.10317993 C97.85254936 -0.10305729 97.85254936 -0.10305729 98.98909443 -0.10293217 C111.01049462 -0.10212022 123.03176923 -0.12123937 135.05313314 -0.14945666 C147.43173303 -0.17828036 159.81027188 -0.1919917 172.18890613 -0.19026911 C179.12436956 -0.18960837 186.0597014 -0.19496047 192.99513435 -0.21662521 C199.52467067 -0.2368931 206.054002 -0.23606703 212.58355522 -0.22159195 C214.96743045 -0.2195144 217.3513234 -0.22414113 219.73516846 -0.23631287 C236.6707927 -0.31711966 252.54550672 0.9863232 268.41893005 7.39242554 C269.15321228 7.68536499 269.88749451 7.97830444 270.64402771 8.28012085 C294.54564105 18.29456165 314.29002305 39.07517538 324.17674255 62.81820679 C324.80783937 64.42288491 325.43035984 66.0309645 326.04393005 67.64242554 C326.32196472 68.35986938 326.59999939 69.07731323 326.88645935 69.8164978 C332.53767176 85.49022573 332.6663958 101.15305267 332.61961365 117.59555054 C332.62368631 120.01527136 332.62903207 122.43499032 332.63554382 124.85470581 C332.64773357 130.70802037 332.6460461 136.5612048 332.6373059 142.41452312 C332.63049211 147.1775526 332.62962847 151.9405498 332.63287735 156.70358276 C332.63333705 157.38508495 332.63379675 158.06658713 332.63427038 158.76874089 C332.63522969 160.15380066 332.63620233 161.53886041 332.63718815 162.92392015 C332.64571433 175.86928421 332.63595166 188.81458422 332.61978705 201.75993776 C332.60638639 212.8340803 332.60871527 223.90812845 332.62254333 234.98226929 C332.6386484 247.88571599 332.64489062 260.78910675 332.63570654 273.6925621 C332.63475104 275.07213083 332.63380792 276.45169957 332.63287735 277.83126831 C332.63241452 278.50979646 332.6319517 279.18832461 332.63147485 279.88741422 C332.62889968 284.63702328 332.63322388 289.38659645 332.64031601 294.13619995 C332.64903149 300.54514483 332.64288045 306.95391282 332.62563324 313.36283875 C332.62169278 315.70401212 332.62276015 318.04520058 332.62942123 320.3863678 C332.67132759 336.62163111 331.91480995 351.77554362 325.91893005 367.07992554 C325.61406677 367.87833862 325.30920349 368.67675171 324.99510193 369.49935913 C315.59153562 393.57033837 296.49675261 414.48404669 272.89012146 425.34457397 C270.5006327 426.35350179 268.09846795 427.29688389 265.66893005 428.20492554 C264.59216003 428.61013428 264.59216003 428.61013428 263.49363708 429.02352905 C247.98157109 434.45258029 232.93896946 434.70578112 216.68138123 434.67147827 C214.22564383 434.67718992 211.76990908 434.68415723 209.31417847 434.692276 C203.36849368 434.7082864 197.42290672 434.71032571 191.47721191 434.7050631 C186.6378968 434.70100034 181.79861275 434.70248976 176.95929909 434.70781136 C176.26713742 434.70855978 175.57497574 434.7093082 174.86183948 434.7100793 C173.45512164 434.71161099 172.04840382 434.71314933 170.641686 434.71469427 C157.48739112 434.72838199 144.33315591 434.72300815 131.17886243 434.71150906 C119.1835772 434.70158254 107.18844636 434.71451391 95.19318493 434.73844325 C82.83253151 434.76291291 70.47194976 434.77242276 58.11127263 434.76579052 C51.18929097 434.76231545 44.26742786 434.76441599 37.34546471 434.78204155 C30.83227835 434.79842261 24.31931281 434.7934603 17.80613136 434.7747364 C15.42870766 434.77107405 13.05126183 434.77408944 10.67385864 434.78462219 C-20.4238238 434.91177746 -47.63254115 427.57441262 -70.53077698 405.64779663 C-83.22848584 393.04507463 -91.37947565 378.89261713 -97.14356995 362.01742554 C-97.38236877 361.32173462 -97.6211676 360.6260437 -97.86720276 359.90927124 C-102.35114479 345.98861039 -102.06630149 332.0095208 -102.05909729 317.54867554 C-102.06508869 315.14588717 -102.07189563 312.74310072 -102.07945251 310.34031677 C-102.09523503 304.51188129 -102.10155836 298.68349509 -102.10267727 292.8550393 C-102.10363194 288.10959153 -102.107763 283.36415696 -102.11407852 278.61871338 C-102.13167058 265.1225482 -102.14092091 251.62641466 -102.13941757 238.13023794 C-102.13933766 237.40448934 -102.13925775 236.67874074 -102.13917542 235.93099976 C-102.13909365 235.20435013 -102.13901189 234.47770051 -102.13892765 233.72903121 C-102.13811594 221.97093881 -102.15722988 210.21297487 -102.18545215 198.45491958 C-102.21429643 186.34070108 -102.22798604 174.22654498 -102.2262646 162.11229134 C-102.22560453 155.32768445 -102.23092649 148.54321214 -102.2526207 141.75863647 C-102.27212914 135.36940547 -102.27204191 128.98045668 -102.25758743 122.59121513 C-102.2555136 120.26139344 -102.26011386 117.93155348 -102.27230835 115.60176277 C-102.42829124 83.70552585 -95.27442245 56.56178112 -73.76856995 32.26742554 C-73.15626526 31.57133179 -72.54396057 30.87523804 -71.9131012 30.15805054 C-60.64314643 18.14317338 -46.14046499 10.28629802 -30.70606995 5.01742554 C-29.98645081 4.77089233 -29.26683167 4.52435913 -28.52540588 4.27035522 C-19.12313993 1.20688597 -9.8655213 -0.03263784 0 0 Z M92.3837738 99.02914429 C83.62415571 108.1385112 79.80556132 117.17391321 79.7197113 129.67367554 C79.70307434 130.53057983 79.68643738 131.38748413 79.66929626 132.27035522 C79.6119695 135.43580208 79.57936262 138.60165791 79.54393005 141.76742554 C79.44080505 148.86242554 79.33768005 155.95742554 79.23143005 163.26742554 C64.05143005 163.92742554 48.87143005 164.58742554 33.23143005 165.26742554 C32.15835912 182.65482406 32.15835912 182.65482406 37.91893005 196.95492554 C43.68500807 202.72100355 49.53747092 205.32689289 57.6493988 205.58383179 C58.90301208 205.62572632 60.15662537 205.66762085 61.44822693 205.71078491 C62.75855896 205.75010132 64.06889099 205.78941772 65.41893005 205.82992554 C66.75422984 205.87313546 68.08951658 205.91675054 69.42478943 205.96078491 C72.69356302 206.06699055 75.96241338 206.16903551 79.23143005 206.26742554 C79.2368985 207.71416908 79.2368985 207.71416908 79.24247742 209.19013977 C79.27968426 218.35319707 79.33773173 227.51592625 79.41533279 236.67873287 C79.45456597 241.38759029 79.48687129 246.09626745 79.50242615 250.80526733 C79.51775399 255.36373542 79.55247767 259.92170709 79.59973907 264.47995186 C79.61438882 266.20470384 79.62246144 267.92952676 79.6233139 269.65434074 C79.64542329 291.99236575 84.41374716 311.4033723 100.50486755 327.61117554 C101.85451599 328.92601929 101.85451599 328.92601929 103.23143005 330.26742554 C104.39545349 331.42758179 104.39545349 331.42758179 105.58299255 332.61117554 C119.63415715 345.91757875 137.73731417 348.77463431 156.33299255 348.54867554 C168.20029791 348.16989145 177.38213289 344.19892425 188.23143005 339.26742554 C188.23143005 325.73742554 188.23143005 312.20742554 188.23143005 298.26742554 C182.95143005 298.59742554 177.67143005 298.92742554 172.23143005 299.26742554 C163.71368877 297.62195279 157.333394 294.67258143 152.2509613 287.45492554 C147.71691352 279.97608383 144.96983825 273.36572392 145.00437927 264.50595093 C145.00453033 263.20513077 145.0046814 261.90431061 145.00483704 260.56407166 C145.01504725 259.16440677 145.02547919 257.76474348 145.03611755 256.36508179 C145.03985272 254.91777238 145.04269731 253.47046043 145.04469299 252.02314758 C145.05228981 248.23377366 145.07190381 244.44455569 145.09410095 240.65524292 C145.11464503 236.7805492 145.12371293 232.90583002 145.1337738 229.03109741 C145.15515389 221.44313608 145.18924143 213.85530275 145.23143005 206.26742554 C152.84560699 205.61142933 160.38949739 205.11958201 168.0322113 205.16976929 C169.30308846 205.17189171 169.30308846 205.17189171 170.59963989 205.17405701 C173.24777599 205.17955669 175.89582048 205.19208827 178.54393005 205.20492554 C180.36359027 205.20995357 182.18325184 205.21451416 184.00291443 205.21859741 C188.41245375 205.22949289 192.8219265 205.24668469 197.23143005 205.26742554 C196.97858855 201.80753698 196.7007785 198.35006232 196.41893005 194.89242554 C196.34867615 193.92691772 196.27842224 192.96140991 196.20603943 191.96664429 C195.16025952 179.25183518 195.16025952 179.25183518 188.48143005 168.82992554 C187.8472113 168.2124646 187.21299255 167.59500366 186.55955505 166.95883179 C174.09092905 157.90024947 161.48488757 161.77534608 145.23143005 161.26742554 C144.90143005 136.51742554 144.57143005 111.76742554 144.23143005 86.26742554 C126.33439847 86.26742554 106.56925205 86.4958848 92.3837738 99.02914429 Z " fill="#FFFFFF" transform="translate(134.76856994628906,32.732574462890625)"/>
<path d="" fill="#FFFFFF" transform="translate(0,0)"/>
<path d="" fill="#FFFFFF" transform="translate(0,0)"/>
<path d="" fill="#FFFFFF" transform="translate(0,0)"/>
<path d="" fill="#FFFFFF" transform="translate(0,0)"/>
<path d="" fill="#FFFFFF" transform="translate(0,0)"/>
<path d="" fill="#FFFFFF" transform="translate(0,0)"/>
<path d="" fill="#FFFFFF" transform="translate(0,0)"/>
<path d="" fill="#FFFFFF" transform="translate(0,0)"/>
<path d="" fill="#FFFFFF" transform="translate(0,0)"/>
<path d="" fill="#FFFFFF" transform="translate(0,0)"/>
<path d="" fill="#FFFFFF" transform="translate(0,0)"/>
<path d="" fill="#FFFFFF" transform="translate(0,0)"/>
<path d="" fill="#FFFFFF" transform="translate(0,0)"/>
<path d="" fill="#FFFFFF" transform="translate(0,0)"/>
<path d="" fill="#FFFFFF" transform="translate(0,0)"/>
<path d="" fill="#FFFFFF" transform="translate(0,0)"/>
<path d="" fill="#FFFFFF" transform="translate(0,0)"/>
<path d="" fill="#FFFFFF" transform="translate(0,0)"/>
<path d="" fill="#FFFFFF" transform="translate(0,0)"/>
<path d="" fill="#FFFFFF" transform="translate(0,0)"/>
<path d="" fill="#FFFFFF" transform="translate(0,0)"/>
<path d="" fill="#FFFFFF" transform="translate(0,0)"/>
<path d="" fill="#FFFFFF" transform="translate(0,0)"/>
<path d="" fill="#FFFFFF" transform="translate(0,0)"/>
<path d="" fill="#FFFFFF" transform="translate(0,0)"/>
<path d="" fill="#FFFFFF" transform="translate(0,0)"/>
<path d="" fill="#FFFFFF" transform="translate(0,0)"/>
<path d="" fill="#FFFFFF" transform="translate(0,0)"/>
<path d="" fill="#FFFFFF" transform="translate(0,0)"/>
<path d="" fill="#FFFFFF" transform="translate(0,0)"/>
<path d="" fill="#FFFFFF" transform="translate(0,0)"/>
</svg>
